<svg width="16" height="16" viewBox="0 0 16 16" fill="none" xmlns="http://www.w3.org/2000/svg">
<circle cx="8" cy="8" r="6.75" fill="#F5F074" stroke="black" stroke-width="0.5"/>
<path d="M8.90218 5.09707C8.90218 5.04853 8.86335 5.00971 8.81482 5.00971C8.73716 5.00971 8.35859 5.35916 8.17416 5.6989C7.99944 5.26209 7.69852 5 7.28112 5C6.18424 5 5 6.41721 5 7.85383C5 8.81482 5.563 9.37782 6.22307 9.37782C6.73754 9.37782 7.16464 8.98954 7.36849 8.76628L7.37819 8.77599L7.00933 10.232L6.92197 10.5815C6.83461 10.8727 6.689 10.8727 6.23278 10.8824C6.126 10.8824 6.02893 10.8824 6.02893 11.0668C6.02893 11.1348 6.08717 11.1639 6.15512 11.1639C6.29102 11.1639 6.46574 11.1445 6.60164 11.1445H7.59175C7.73735 11.1445 7.90237 11.1639 8.04797 11.1639C8.10621 11.1639 8.22269 11.1639 8.22269 10.9795C8.22269 10.8824 8.14504 10.8824 7.99944 10.8824C7.54321 10.8824 7.51409 10.8144 7.51409 10.7368C7.51409 10.6883 7.5238 10.6785 7.55292 10.5524L8.90218 5.09707ZM7.5335 8.12563C7.48497 8.29064 7.48497 8.31006 7.34907 8.49449C7.13552 8.76628 6.70842 9.18368 6.25219 9.18368C5.85421 9.18368 5.63095 8.82452 5.63095 8.25182C5.63095 7.71794 5.93186 6.63076 6.11629 6.22307C6.44633 5.54359 6.90256 5.19414 7.28112 5.19414C7.92178 5.19414 8.04797 5.99011 8.04797 6.06776C8.04797 6.07747 8.01885 6.20366 8.00914 6.22307L7.5335 8.12563Z" fill="black"/>
<path d="M12 8.67244C12 7.98002 11.9288 7.55938 11.7153 7.14522C11.4305 6.57575 10.9063 6.43338 10.5504 6.43338C9.73505 6.43338 9.43737 7.04168 9.34677 7.22288C9.1138 7.69528 9.10086 8.33594 9.10086 8.67244C9.10086 9.09955 9.12027 9.75315 9.4309 10.2708C9.72857 10.7497 10.2074 10.8727 10.5504 10.8727C10.861 10.8727 11.4176 10.7756 11.7411 10.135C11.9806 9.66902 12 9.09308 12 8.67244ZM10.5504 10.6915C10.3304 10.6915 9.88388 10.5879 9.74799 9.90846C9.6768 9.53959 9.6768 8.93129 9.6768 8.59479C9.6768 8.14827 9.6768 7.69528 9.74799 7.33936C9.88388 6.67929 10.3886 6.61458 10.5504 6.61458C10.7704 6.61458 11.217 6.72459 11.3464 7.31347C11.424 7.66939 11.424 8.15474 11.424 8.59479C11.424 8.97659 11.424 9.55901 11.3464 9.9214C11.2105 10.6009 10.764 10.6915 10.5504 10.6915Z" fill="black"/>
</svg>
